<svg xmlns="http://www.w3.org/2000/svg" width="266.501" height="69.957" viewBox="0 0 266.501 69.957">
  <g id="Group_20887" data-name="Group 20887" transform="translate(-48.206 -307.042)">
    <g id="Group_6913" data-name="Group 6913" transform="translate(48.205 412.042)">
      <g id="qryhTY01" transform="translate(-13.998 -54.883)">
        <path id="Path_33618" data-name="Path 33618" d="M46-48c-1.6,2.9.4,6,3.8,6S55-43.6,55-46.6C55-50.4,47.9-51.5,46-48Z" fill="#093358"/>
        <path id="Path_33619" data-name="Path 33619" d="M115.2-48.8c-3,3-.3,7.2,4.4,6.6,3.4-.4,5.3-3.1,3.8-5.6C122.1-49.9,117-50.6,115.2-48.8Z" fill="#093358"/>
        <path id="Path_33620" data-name="Path 33620" d="M218-37v11h15.1l-.2-6.8-.2-6.7,8.9-.1,8.9-.2.3-4.1.3-4.1H218Zm14.6-4.8c-1.8,1.6-2.7,3.7-3.1,6.7-.6,5.3-1.1,6.1-3.5,6.1-4.3,0-5-1-5-7.4,0-3.5.3-6.6.7-6.9.3-.4,3.5-.7,7-.7h6.4Z" fill="#e88219"/>
        <path id="Path_33621" data-name="Path 33621" d="M14-30v17h9c12.6,0,17-2.5,17-9.7,0-3.5-2.5-7.3-4.8-7.3-1.3,0-1-.6,1.1-2.3,2.5-1.9,2.8-2.8,2.5-6.7-.3-4-.7-4.7-3.8-6.2C32.5-46.5,29.1-47,22.8-47H14Zm6.8-11c-.7,1.1-1.6,2-2,2-.5,0-.8-.9-.8-2a1.8,1.8,0,0,1,2-2C21.8-43,21.9-42.8,20.8-41Zm8.7,4c0,2.1-.5,2.6-3.2,2.8-3.1.3-3.3.1-3.3-2.8s.2-3.1,3.3-2.8C29-39.6,29.5-39.1,29.5-37Zm-8.4,4.1c1.8,2.6,1.8,2.7-.1,4.4a7.716,7.716,0,0,0-2.2,4.4c-.1,1.4-.4.1-.7-2.9-.6-5.8-.1-12.6.7-10A22.861,22.861,0,0,0,21.1-32.9Zm9,7.5c1.9,2.3-.1,4.8-4,5.2-3,.3-3.1.2-3.1-3.2,0-3.3.2-3.6,2.9-3.6A6.164,6.164,0,0,1,30.1-25.4Z" fill="#093358"/>
        <path id="Path_33622" data-name="Path 33622" d="M87-30v17h22.5l.1-3.5.1-3.5H96V-47H87Zm7,10.5c.7.9,1,1.8.7,2.1-1,1.1-3.7-.5-3.7-2.1C91-21.4,92.4-21.4,94-19.5Z" fill="#093358"/>
        <path id="Path_33623" data-name="Path 33623" d="M70.3-39.3,60-38.9v7.2l5.5-.6c6.3-.6,6.3-1.1-.7,7.9-2.9,3.8-4.8,7.2-4.8,8.8V-13H82v-7.2l-5.5.4c-3,.1-5.5.1-5.5-.2a67.9,67.9,0,0,1,5-6.9c3.8-4.7,5-7.2,5-9.7a12.019,12.019,0,0,0-.2-3.2C80.6-39.7,75.9-39.4,70.3-39.3ZM69-19c.9,1.8.8,2-1.5,2-2.7,0-2.8-.1-1.9-2.4C66.4-21.6,67.7-21.4,69-19Z" fill="#093358"/>
        <path id="Path_33624" data-name="Path 33624" d="M136.5-38.7c-5,2.4-6.8,5.2-7.3,11.6-.4,6.2,1.3,11.2,4.6,13a18.69,18.69,0,0,0,12.5,1.2c3-1,3.6-1.7,4-4.9.5-4.3.2-4.9-1.5-3.5-4.9,3.9-10.8,1.4-10.8-4.6,0-5.3,2.7-7.7,7.1-6.2,1.8.6,3.3,1.1,3.5,1.1.8,0,2.3-6.5,1.6-7.2C148.6-39.8,139.6-40.1,136.5-38.7Z" fill="#093358"/>
        <path id="Path_33625" data-name="Path 33625" d="M164.5-39.3c-7.4,2-11,13.7-6.5,21.1,3.3,5.4,10.2,7.4,18.3,5.1,3.4-.9,3.7-1.3,3.7-4.5,0-3.1-.2-3.4-1.9-2.4-2.7,1.4-10.4,1.3-11.9-.2a4.151,4.151,0,0,1-1.2-2.6c0-1,1.8-1.3,8-1.1,4.4.1,8.3,0,8.6-.3,1.2-1.3-1.1-9.4-3.5-12.1-2.1-2.2-3.7-3-7.1-3.2A25.415,25.415,0,0,0,164.5-39.3Zm7.3,6.5c2.4,2.4,1.3,3.8-2.8,3.8-4.3,0-4.9-.9-2.4-3.4C168.5-34.3,170.2-34.4,171.8-32.8ZM163-28.5c1,1.2,1,2.1.2,4-1.7,3.7-3.2,3-3.2-1.5C160-30.2,160.9-31,163-28.5Z" fill="#093358"/>
        <path id="Path_33626" data-name="Path 33626" d="M199-39.3a10.944,10.944,0,0,0-3.2,2.1c-1.6,1.3-1.8,1.3-2.4-.2-.4-1-1.8-1.6-4-1.6H186v26h9v-7.8c0-8,1.6-12.2,4.5-12.2,2.5,0,3.5,3.6,3.5,11.9V-13h9V-23.6c0-10.3-.1-10.6-2.9-13.5A9.1,9.1,0,0,0,199-39.3Zm8.6,11.9c.2,5.6.2,5.7-.5,1.4a24.445,24.445,0,0,0-2.6-7.5l-2-3,2.5,1.6C207.2-33.5,207.5-32.5,207.6-27.4Zm-15.4-3.4a46.183,46.183,0,0,0-.7,6c0,1.6-.3,2.8-.7,2.8-1,0-1.1-10.4-.1-11.3C192.2-34.9,192.9-33.8,192.2-30.8Z" fill="#093358"/>
        <path id="Path_33627" data-name="Path 33627" d="M263.5-39.3C254-37,252-18.8,260.8-14.1c3.4,1.8,9.6,2.3,14,1.2,3.9-1.1,4.2-1.4,4.2-4.7,0-3.1-.2-3.4-1.9-2.4a20.075,20.075,0,0,1-6.5,1c-3.5,0-4.8-.5-5.6-1.9a13.553,13.553,0,0,1-1-2.6c0-.3,3.7-.5,8.3-.4l8.2.2-.2-4.4a20.408,20.408,0,0,0-1.4-6.6C276.7-38.8,269.8-40.8,263.5-39.3Zm7.3,6.5c2.4,2.4,1.3,3.8-2.8,3.8-4.3,0-4.9-.9-2.4-3.4C267.5-34.3,269.2-34.4,270.8-32.8ZM263-26.5a6.517,6.517,0,0,1-1.4,3c-1.3,1.8-1.4,1.8-2.1-.4a10.134,10.134,0,0,1,0-4.9c.6-2.6.7-2.6,2.1-.8A7.253,7.253,0,0,1,263-26.5Z" fill="#093358"/>
        <path id="Path_33628" data-name="Path 33628" d="M45.5-26v13H55V-39H45.5Z" fill="#093358"/>
        <path id="Path_33629" data-name="Path 33629" d="M114.5-26v13H124V-39h-9.5Z" fill="#093358"/>
        <path id="Path_33630" data-name="Path 33630" d="M236-30v7H218v8.5l16.3-.3,16.3-.3V-37H236Zm10.8,3.3c.2,3.5-.2,6.4-.9,7.3-1.1,1.4-10.9,2.1-10.9.8a12.585,12.585,0,0,1,2-3.1,10.985,10.985,0,0,0,2-6.3c0-4.5.6-5.2,4.5-4.8C246.4-32.5,246.5-32.4,246.8-26.7Z" fill="#e88219"/>
      </g>
    </g>
    <g id="Group_20885" data-name="Group 20885" transform="translate(180.206 292.999)">
      <text id="Certificate" transform="translate(-132 79)" fill="#e88219" font-size="22" font-family="Helvetica" letter-spacing="0.08em"><tspan x="0" y="0">CERTIFICATE</tspan></text>
    </g>
  </g>
</svg>
