<svg xmlns="http://www.w3.org/2000/svg" viewBox="0 0 125.01 114.98"><defs><style>.cls-1{fill:#366894;}.cls-2{fill:#2583cc;}.cls-3{fill:#093358;}</style></defs><title>subscripe</title><g id="Layer_2" data-name="Layer 2"><g id="Layer_1-2" data-name="Layer 1"><path class="cls-1" d="M58.2,80c-1.14-1.12-2.7-1.49-3.45-3-.4-.77-1.41-.48-2.16-.48q-20.75,0-41.49.06A11.82,11.82,0,0,1,5,75.35c-3.48-2-4.92-5.14-5-9s0-7.44,0-11.16Q0,32.87,0,10.54A10.67,10.67,0,0,1,2.42,3.13,9.65,9.65,0,0,1,10.18,0h82A16.75,16.75,0,0,1,96,.29a8.86,8.86,0,0,1,7.29,8.9c.11,7.06,0,14.11.06,21.16q0,7.59,0,15.16c0,1.1.08,2.05,1.34,2.57s.89,1.67.92,2.64c.07,2,.11,2.12,1.76,1.17a3.39,3.39,0,0,1,4.48.53,66.48,66.48,0,0,1,5.88,5.87,3.17,3.17,0,0,1,.5,4.18c-1,1.74-.83,1.93,1.13,2s2.57.41,3.34,2.34a41.36,41.36,0,0,1,2.25,8.33c.29,1.69,0,3.08-1.76,3.83A10.09,10.09,0,0,0,121.57,80a8.88,8.88,0,0,0,1.56,1.09c1.69.71,2.05,2,1.81,3.65A40.67,40.67,0,0,1,122.37,94c-.62,1.57-2,1.59-3.31,1.69-1.75.12-1.92.32-.92,1.78,1.12,1.65.81,2.91-.39,4.32a50.84,50.84,0,0,1-6.27,6.18,3,3,0,0,1-3.66.36c-1.92-1-2.07-.89-2.17,1.32a2.91,2.91,0,0,1-2.09,2.86,44.8,44.8,0,0,1-9,2.39,2.74,2.74,0,0,1-3.31-1.49,18.79,18.79,0,0,0-1.17-1.72,5.43,5.43,0,0,0-1.61,2,2.49,2.49,0,0,1-2.67,1.21,38.87,38.87,0,0,1-9.62-2.52,2.54,2.54,0,0,1-1.87-2.62c0-.5,0-1,0-1.5,0-.76-.4-1.12-1-.63-2.74,2.18-4.71.66-6.61-1.29-1.43-1.46-2.85-2.95-4.28-4.43s-1.86-2.85-.55-4.58a9.06,9.06,0,0,0,.72-1.49c-1-.11-1.92-.28-2.83-.3a2.3,2.3,0,0,1-2.22-1.65A41.82,41.82,0,0,1,55,84.82c-.29-1.62.08-2.8,1.66-3.55A3.4,3.4,0,0,0,58.2,80Zm63.89-4.76a31.49,31.49,0,0,0-2-7.23,1.56,1.56,0,0,0-1.63-.9,24.47,24.47,0,0,1-3.32-.22c-1.4-.22-1.77-.93-1.22-2.25a29.74,29.74,0,0,1,1.4-2.83,1.89,1.89,0,0,0-.27-2.42,47.35,47.35,0,0,0-4.6-4.58,1.79,1.79,0,0,0-2.4-.17A22.33,22.33,0,0,1,105.4,56c-1.5.64-2.17.26-2.38-1.39a22.94,22.94,0,0,1-.14-3,1.82,1.82,0,0,0-1.43-2c-1.89-.63-3.81-1.15-5.76-1.61a2.48,2.48,0,0,0-3.13,1.48,12.86,12.86,0,0,1-1.47,2.21,1.32,1.32,0,0,1-2.35,0c-.66-.88-1.26-1.82-1.84-2.76a1.74,1.74,0,0,0-2.19-1c-1.33.39-2.74.51-4,1-4,1.34-3.42.44-3.73,4.66a11.31,11.31,0,0,1-.07,1.17c-.23,1.39-.91,1.83-2.23,1.3a22.21,22.21,0,0,1-3-1.48,1.76,1.76,0,0,0-2.27.22,53.57,53.57,0,0,0-4.71,4.7,1.83,1.83,0,0,0-.25,2.29c.55,1,1.07,2.06,1.53,3.13s0,1.75-1.11,1.9a18.41,18.41,0,0,1-3.31.27,2,2,0,0,0-2.19,1.59,55.22,55.22,0,0,0-1.57,5.94,2,2,0,0,0,1.15,2.47,19.7,19.7,0,0,1,2.37,1.55c1.32,1,1.31,1.72-.05,2.72a25.5,25.5,0,0,1-2.64,1.73,1.62,1.62,0,0,0-.9,1.92,51.49,51.49,0,0,0,1.62,6.27,1.92,1.92,0,0,0,2.17,1.58,15.87,15.87,0,0,1,3.15.24c1.37.18,1.74.8,1.24,2.07A19,19,0,0,1,64.51,98a1.91,1.91,0,0,0,.23,2.55A43.51,43.51,0,0,0,69,104.83a2.36,2.36,0,0,0,2.89.41c.84-.43,1.67-.89,2.54-1.24,1.5-.61,2.23-.2,2.42,1.38a20,20,0,0,1,.14,3,1.82,1.82,0,0,0,1.41,2,56.69,56.69,0,0,0,6.41,1.74,1.63,1.63,0,0,0,1.94-.9c.45-.76.94-1.5,1.45-2.23,1.35-1.93,2-1.92,3.44,0,.51.72,1,1.48,1.43,2.24a1.56,1.56,0,0,0,1.8.86,50.22,50.22,0,0,0,6.43-1.69,1.92,1.92,0,0,0,1.47-2c0-.78.11-1.55.16-2.33.15-2.44.87-2.88,3-1.85.8.39,1.61.75,2.37,1.21a1.49,1.49,0,0,0,1.95-.18,41.81,41.81,0,0,0,4.75-4.66,2.05,2.05,0,0,0,.19-2.73A18.87,18.87,0,0,1,114,95.53c-.68-1.54-.35-2.18,1.29-2.43a19.48,19.48,0,0,1,3.15-.23,1.7,1.7,0,0,0,1.89-1.25A45.59,45.59,0,0,0,122,85.21a1.89,1.89,0,0,0-1.14-2.28,17.09,17.09,0,0,1-2.48-1.67c-1.15-.91-1.14-1.61,0-2.53A27.38,27.38,0,0,1,121.06,77,1.73,1.73,0,0,0,122.09,75.28ZM11.24,2.81c-1.51.59-3.1-.14-4.57.71-.86.49-1,1-.21,1.64,4,3.58,8,7.15,12,10.75,6.24,5.65,12.45,11.34,18.68,17,4.75,4.32,9.53,8.62,14.27,13a1.45,1.45,0,0,0,2.29,0c1.92-1.76,3.89-3.46,5.84-5.18L75.89,26.37l8.86-7.78c4.45-3.91,8.91-7.81,13.32-11.76,1.18-1,1.09-1.52-.14-2.48C96.3,3.08,94.37,3,92.43,2.84c-5.25-.3-10.5.08-15.75,0C54.87,2.71,33.05,2.81,11.24,2.81Zm28.22,71c4.61,0,9.22,0,13.83,0a1.75,1.75,0,0,0,2.05-1.63,39.12,39.12,0,0,1,1.78-5.53,2.86,2.86,0,0,1,3-2.21c2.22,0,2.42-.38,1.26-2.22a2.43,2.43,0,0,1-.05-3.07A37,37,0,0,1,68.47,52a3.26,3.26,0,0,1,4-.14c.39.26.82.78,1.31.4a1.67,1.67,0,0,0,.43-1.7,3.24,3.24,0,0,0-1-1.67c-2.53-2.5-5.08-5-7.54-7.55a1.41,1.41,0,0,0-2.35-.1c-3,2.67-6,5.29-8.94,7.94-1.42,1.27-2.24,1.28-3.57,0C48,46.57,45.09,44,42.27,41.3a1.61,1.61,0,0,0-2.57,0c-1.12,1.09-2.21,2.19-3.37,3.23Q27,52.88,17.65,61.24c-3.42,3.07-6.84,6.14-10.22,9.26-.6.56-1.8,1-1.41,2s1.53.91,2.47,1h.17c6.6,0,13.2-.05,19.8.25C32.12,73.93,35.79,73.79,39.46,73.79ZM2.83,38.2q0,13.48,0,27a23.4,23.4,0,0,0,.25,3.65c.2,1.3.53,1.37,1.55.45l32.7-29.59c1.54-1.4,1.51-1.45-.1-2.91L13.7,15.43q-4.44-4-8.89-8c-.35-.32-.71-.85-1.26-.63S3,7.6,3,8.06c-.11,1.11-.15,2.22-.15,3.33Q2.83,24.8,2.83,38.2ZM100.58,9a1.12,1.12,0,0,0-1,.41q-15.89,14-31.77,27.88c-1.07.93-.91,1.52,0,2.38q3.67,3.51,7.24,7.12a1.91,1.91,0,0,0,2.38.45,38.45,38.45,0,0,1,7.54-2,3.19,3.19,0,0,1,3.79,1.62c1,1.75,1.34,1.74,2.42-.08a2.89,2.89,0,0,1,3.63-1.48c1.34.33,2.72.52,4.06.84,1.63.4,1.76.36,1.76-1.29C100.59,32.9,100.58,21,100.58,9Z"/><path class="cls-2" d="M24.87,98.85a8.45,8.45,0,0,1-8.35,8.23A8.46,8.46,0,0,1,8.3,98.72a8.36,8.36,0,0,1,8.35-8.2A8.39,8.39,0,0,1,24.87,98.85Zm-8.25-5.4a5.17,5.17,0,0,0-5.45,5.24,5.44,5.44,0,0,0,5.4,5.58A5.38,5.38,0,0,0,22,98.93,5.15,5.15,0,0,0,16.62,93.45Z"/><path class="cls-2" d="M110.2,15.2A6.87,6.87,0,1,1,123.94,15a6.87,6.87,0,0,1-13.74.19ZM117,11.06a4.18,4.18,0,0,0-4.12,4.11,4.16,4.16,0,0,0,8.31,0A4.21,4.21,0,0,0,117,11.06Z"/><path class="cls-2" d="M117.65,31.57a2.19,2.19,0,0,1,2.17,2.07,2.26,2.26,0,0,1-2,2.06,2.23,2.23,0,0,1-2.16-2.09A2.15,2.15,0,0,1,117.65,31.57Z"/><path class="cls-2" d="M117.66.1a2.06,2.06,0,0,1,2.16,1.83,2.13,2.13,0,0,1-2,2.18,2.1,2.1,0,0,1-2.16-1.86A2.1,2.1,0,0,1,117.66.1Z"/><path class="cls-2" d="M117.82,112.44a2.09,2.09,0,0,1-2.14-1.9,2.06,2.06,0,0,1,1.91-2.11,2.11,2.11,0,0,1,2.23,2A2.08,2.08,0,0,1,117.82,112.44Z"/><path class="cls-2" d="M41.3,88.58a1.87,1.87,0,0,1-2,1.92,2,2,0,1,1,.15-4A1.94,1.94,0,0,1,41.3,88.58Z"/><path class="cls-2" d="M61.94,110.46a2,2,0,0,1-2,2,2,2,0,1,1,0-4A1.93,1.93,0,0,1,61.94,110.46Z"/><path class="cls-2" d="M8.29,110.41a2,2,0,0,1-2,2.06,2.07,2.07,0,0,1-2.11-1.91,2,2,0,0,1,2.05-2.13A2,2,0,0,1,8.29,110.41Z"/><path class="cls-3" d="M11.24,2.81c21.81,0,43.63-.1,65.44.07,5.25,0,10.5-.34,15.75,0,1.94.11,3.87.24,5.5,1.51,1.23,1,1.32,1.43.14,2.48-4.41,3.95-8.87,7.85-13.32,11.76l-8.86,7.78L59.55,40.73c-1.95,1.72-3.92,3.42-5.84,5.18a1.45,1.45,0,0,1-2.29,0c-4.74-4.34-9.52-8.64-14.27-13-6.23-5.66-12.44-11.35-18.68-17-4-3.6-8-7.17-12-10.75-.74-.67-.65-1.15.21-1.64C8.14,2.67,9.73,3.4,11.24,2.81Zm41.44,6h-20a7.37,7.37,0,0,0-1.49.08A1.4,1.4,0,0,0,30,10.28c0,.72.49,1.08,1.15,1.2a13.43,13.43,0,0,0,2.29.32q19.49,0,39,0a4,4,0,0,0,1.64-.2,1.31,1.31,0,0,0,.88-1.43,1.33,1.33,0,0,0-1.1-1.29,5.91,5.91,0,0,0-1.33,0Zm-.14,9.67c5.16,0,10.31,0,15.47,0,1.34,0,2-.77,1.53-1.84-.37-.91-1.22-.83-2-.83H37.44c-1,0-1.93,0-1.89,1.4s.94,1.28,1.85,1.28Zm0,7h8.66c.8,0,1.41-.17,1.46-1.16s-.48-1.4-1.37-1.5a4.85,4.85,0,0,0-.66,0H44.26c-1,0-1.92.14-1.94,1.3s1,1.39,2,1.38C47.05,25.47,49.77,25.48,52.49,25.48Z"/><path class="cls-3" d="M39.46,73.79c-3.67,0-7.34.14-11,0-6.6-.3-13.2-.21-19.8-.25H8.49c-.94-.06-2.1,0-2.47-1s.81-1.47,1.41-2c3.38-3.12,6.8-6.19,10.22-9.26Q27,52.86,36.33,44.48c1.16-1,2.25-2.14,3.37-3.23a1.61,1.61,0,0,1,2.57,0C45.09,44,48,46.57,50.79,49.21c1.33,1.24,2.15,1.23,3.57,0,3-2.65,6-5.27,8.94-7.94a1.41,1.41,0,0,1,2.35.1c2.46,2.57,5,5.05,7.54,7.55a3.24,3.24,0,0,1,1,1.67,1.67,1.67,0,0,1-.43,1.7c-.49.38-.92-.14-1.31-.4a3.26,3.26,0,0,0-4,.14,37,37,0,0,0-7.1,7.16,2.43,2.43,0,0,0,.05,3.07c1.16,1.84,1,2.24-1.26,2.22a2.86,2.86,0,0,0-3,2.21,39.12,39.12,0,0,0-1.78,5.53,1.75,1.75,0,0,1-2.05,1.63C48.68,73.77,44.07,73.79,39.46,73.79Z"/><path class="cls-2" d="M71.5,79.91a18.4,18.4,0,1,1,36.8.61c-.13,10-8.67,18.09-18.88,18A18.46,18.46,0,0,1,71.5,79.91ZM89.86,95.52c8.19.39,15.86-7,15.76-15.53A15.65,15.65,0,0,0,90,64.46,15.46,15.46,0,0,0,74.25,79.91C74.2,88.92,82,96,89.86,95.52Z"/><path class="cls-1" d="M52.68,8.81H72.5a5.91,5.91,0,0,1,1.33,0,1.33,1.33,0,0,1,1.1,1.29,1.31,1.31,0,0,1-.88,1.43,4,4,0,0,1-1.64.2q-19.48,0-39,0a13.43,13.43,0,0,1-2.29-.32C30.49,11.36,30,11,30,10.28a1.4,1.4,0,0,1,1.21-1.39,7.37,7.37,0,0,1,1.49-.08h20Z"/><path class="cls-1" d="M52.54,18.48H37.4c-.91,0-1.81.08-1.85-1.28s.9-1.4,1.89-1.4H67.55c.77,0,1.62-.08,2,.83.43,1.07-.19,1.84-1.53,1.84C62.85,18.49,57.7,18.48,52.54,18.48Z"/><path class="cls-1" d="M52.49,25.48c-2.72,0-5.44,0-8.16,0-1,0-2-.1-2-1.38s1-1.3,1.94-1.3H60.58a4.85,4.85,0,0,1,.66,0c.89.1,1.43.48,1.37,1.5s-.66,1.16-1.46,1.16H52.49Z"/><path class="cls-3" d="M89.86,95.52C82,96,74.2,88.92,74.25,79.91A15.46,15.46,0,0,1,90,64.46,15.65,15.65,0,0,1,105.62,80C105.72,88.48,98.05,95.91,89.86,95.52Zm11.46-15.46c.37-6.08-5-11.67-11.52-11.6A11.8,11.8,0,0,0,78.27,79.89,11.5,11.5,0,0,0,89.87,91.5,11.16,11.16,0,0,0,101.32,80.06Z"/><path class="cls-2" d="M101.32,80.06A11.16,11.16,0,0,1,89.87,91.5a11.5,11.5,0,0,1-11.6-11.61A11.8,11.8,0,0,1,89.8,68.46C96.34,68.39,101.69,74,101.32,80.06Zm-2.69,0a8.76,8.76,0,0,0-8.73-8.81A8.85,8.85,0,0,0,81.12,80a8.76,8.76,0,1,0,17.51,0Z"/></g></g></svg>